<svg class="svg-icon" style="width: 1em; height: 1em;vertical-align: middle;fill: currentColor;overflow: hidden;" viewBox="0 0 1024 1024" version="1.1" xmlns="http://www.w3.org/2000/svg"><path d="M849.9 132.5L375.1 607.3c-12.5 12.5-12.5 32.9 0.1 45.4 12.5 12.5 32.9 12.5 45.4 0l474.7-474.8c12.5-12.5 12.5-32.9 0-45.4s-32.9-12.5-45.4 0z" fill="#4D4D4D" /><path d="M932.8 62.8a32.2 32.1 0 1 0 64.4 0 32.2 32.1 0 1 0-64.4 0Z" fill="#4D4D4D" /><path d="M866.9 352c-17.8 0-32.2 14.4-32.2 32.1v0.1h-0.3v446.4c0 35.2-28.8 64-64 64H223.2c-35.2 0-64-28.8-64-64V192c0-35.2 28.8-64 64-64h482.4c17.6-0.3 31.7-14.5 31.7-32.1 0-17.7-14.4-32.1-32.2-32.1-0.8 0-1.6 0-2.4 0.1H227c-70.4 0-128 57.6-128 128v639.7c0 70.4 57.6 128 128 128h574c70.4 0 98-57.6 98-128V386.5c0.1-0.8 0.1-1.6 0.1-2.4 0-17.7-14.4-32.1-32.2-32.1z" fill="#4D4D4D" /></svg>